<mxfile host="app.diagrams.net" modified="2022-07-12T09:27:49.598Z" agent="5.0 (Macintosh; Intel Mac OS X 10_15_7) AppleWebKit/537.36 (KHTML, like Gecko) Chrome/103.0.0.0 Safari/537.36" etag="44EE4-yvH6aI9tvxQf9z" version="18.0.6" type="github">
  <diagram id="bWxWPY4lvkNfk8MPVSgl" name="cxl-demo">
    <mxGraphModel dx="1843" dy="807" grid="1" gridSize="10" guides="1" tooltips="1" connect="1" arrows="1" fold="1" page="1" pageScale="1" pageWidth="827" pageHeight="1169" math="0" shadow="0">
      <root>
        <mxCell id="0" />
        <mxCell id="1" parent="0" />
        <mxCell id="xpD0ZEU0XskHfSFEMHfj-1" value="" style="rounded=1;whiteSpace=wrap;html=1;dashed=1;fillColor=none;strokeWidth=2;strokeColor=#3333FF;" parent="1" vertex="1">
          <mxGeometry x="50" y="620" width="820" height="280" as="geometry" />
        </mxCell>
        <mxCell id="xpD0ZEU0XskHfSFEMHfj-2" value="&lt;p style=&quot;line-height: 150% ; font-size: 15px&quot;&gt;supersql主机房&lt;/p&gt;" style="text;html=1;strokeColor=none;fillColor=none;align=center;verticalAlign=middle;whiteSpace=wrap;rounded=0;dashed=1;fontSize=15;" parent="1" vertex="1">
          <mxGeometry x="70" y="620" width="115" height="40" as="geometry" />
        </mxCell>
        <mxCell id="xpD0ZEU0XskHfSFEMHfj-3" value="supersql" style="rounded=0;whiteSpace=wrap;html=1;strokeColor=#001DBC;fillColor=#0050ef;fontColor=#ffffff;" parent="1" vertex="1">
          <mxGeometry x="260" y="710" width="85" height="45" as="geometry" />
        </mxCell>
        <mxCell id="xpD0ZEU0XskHfSFEMHfj-4" value="数据源" style="rounded=0;whiteSpace=wrap;html=1;strokeColor=#001DBC;fillColor=#0050ef;fontColor=#ffffff;" parent="1" vertex="1">
          <mxGeometry x="570" y="640" width="85" height="45" as="geometry" />
        </mxCell>
        <mxCell id="xpD0ZEU0XskHfSFEMHfj-5" style="edgeStyle=orthogonalEdgeStyle;rounded=0;orthogonalLoop=1;jettySize=auto;html=1;" parent="1" source="xpD0ZEU0XskHfSFEMHfj-6" target="xpD0ZEU0XskHfSFEMHfj-7" edge="1">
          <mxGeometry relative="1" as="geometry" />
        </mxCell>
        <mxCell id="xpD0ZEU0XskHfSFEMHfj-6" value="livy" style="rounded=0;whiteSpace=wrap;html=1;strokeColor=#001DBC;fillColor=#0050ef;fontColor=#ffffff;" parent="1" vertex="1">
          <mxGeometry x="570" y="715" width="85" height="45" as="geometry" />
        </mxCell>
        <mxCell id="xpD0ZEU0XskHfSFEMHfj-7" value="spark" style="rounded=0;whiteSpace=wrap;html=1;strokeColor=#001DBC;fillColor=#0050ef;fontColor=#ffffff;" parent="1" vertex="1">
          <mxGeometry x="742" y="715" width="85" height="45" as="geometry" />
        </mxCell>
        <mxCell id="xpD0ZEU0XskHfSFEMHfj-8" value="thive thrift server" style="rounded=0;whiteSpace=wrap;html=1;strokeColor=#001DBC;fillColor=#0050ef;fontColor=#ffffff;" parent="1" vertex="1">
          <mxGeometry x="570" y="805" width="85" height="45" as="geometry" />
        </mxCell>
        <mxCell id="xpD0ZEU0XskHfSFEMHfj-9" value="" style="rounded=1;whiteSpace=wrap;html=1;dashed=1;fillColor=none;strokeWidth=2;strokeColor=#3333FF;" parent="1" vertex="1">
          <mxGeometry x="265" y="970" width="465" height="100" as="geometry" />
        </mxCell>
        <mxCell id="xpD0ZEU0XskHfSFEMHfj-10" value="&lt;p style=&quot;line-height: 150% ; font-size: 15px&quot;&gt;远程机房&lt;/p&gt;" style="text;html=1;strokeColor=none;fillColor=none;align=center;verticalAlign=middle;whiteSpace=wrap;rounded=0;dashed=1;fontSize=15;" parent="1" vertex="1">
          <mxGeometry x="260" y="970" width="115" height="40" as="geometry" />
        </mxCell>
        <mxCell id="xpD0ZEU0XskHfSFEMHfj-11" value="thive thrift server" style="rounded=0;whiteSpace=wrap;html=1;strokeColor=#001DBC;fillColor=#0050ef;fontColor=#ffffff;" parent="1" vertex="1">
          <mxGeometry x="450" y="990" width="85" height="45" as="geometry" />
        </mxCell>
        <mxCell id="xpD0ZEU0XskHfSFEMHfj-12" value="2.获取数据源" style="endArrow=classic;html=1;rounded=0;exitX=1;exitY=0.25;exitDx=0;exitDy=0;entryX=0;entryY=0.25;entryDx=0;entryDy=0;" parent="1" source="xpD0ZEU0XskHfSFEMHfj-3" target="xpD0ZEU0XskHfSFEMHfj-4" edge="1">
          <mxGeometry width="50" height="50" relative="1" as="geometry">
            <mxPoint x="382.5" y="700" as="sourcePoint" />
            <mxPoint x="432.5" y="650" as="targetPoint" />
          </mxGeometry>
        </mxCell>
        <mxCell id="xpD0ZEU0XskHfSFEMHfj-13" value="1.提交sql" style="edgeStyle=orthogonalEdgeStyle;rounded=0;orthogonalLoop=1;jettySize=auto;html=1;" parent="1" source="xpD0ZEU0XskHfSFEMHfj-14" target="xpD0ZEU0XskHfSFEMHfj-3" edge="1">
          <mxGeometry relative="1" as="geometry" />
        </mxCell>
        <mxCell id="xpD0ZEU0XskHfSFEMHfj-14" value="client" style="ellipse;whiteSpace=wrap;html=1;fontSize=15;strokeColor=#BD7000;strokeWidth=2;fillColor=#f0a30a;fontColor=#000000;" parent="1" vertex="1">
          <mxGeometry x="60" y="707.5" width="80" height="50" as="geometry" />
        </mxCell>
        <mxCell id="xpD0ZEU0XskHfSFEMHfj-15" value="" style="endArrow=classic;html=1;rounded=0;exitX=0.5;exitY=1;exitDx=0;exitDy=0;entryX=0.412;entryY=0;entryDx=0;entryDy=0;entryPerimeter=0;" parent="1" source="xpD0ZEU0XskHfSFEMHfj-3" target="xpD0ZEU0XskHfSFEMHfj-11" edge="1">
          <mxGeometry width="50" height="50" relative="1" as="geometry">
            <mxPoint x="280" y="870" as="sourcePoint" />
            <mxPoint x="330" y="820" as="targetPoint" />
          </mxGeometry>
        </mxCell>
        <mxCell id="xpD0ZEU0XskHfSFEMHfj-16" value="3.通过jdbc获取table schema" style="edgeLabel;html=1;align=center;verticalAlign=middle;resizable=0;points=[];" parent="xpD0ZEU0XskHfSFEMHfj-15" vertex="1" connectable="0">
          <mxGeometry x="-0.1438" relative="1" as="geometry">
            <mxPoint y="29" as="offset" />
          </mxGeometry>
        </mxCell>
        <mxCell id="xpD0ZEU0XskHfSFEMHfj-17" value="" style="endArrow=classic;html=1;rounded=0;exitX=1;exitY=0.75;exitDx=0;exitDy=0;entryX=0.5;entryY=0;entryDx=0;entryDy=0;" parent="1" source="xpD0ZEU0XskHfSFEMHfj-3" target="xpD0ZEU0XskHfSFEMHfj-8" edge="1">
          <mxGeometry width="50" height="50" relative="1" as="geometry">
            <mxPoint x="370" y="830" as="sourcePoint" />
            <mxPoint x="420" y="780" as="targetPoint" />
          </mxGeometry>
        </mxCell>
        <mxCell id="xpD0ZEU0XskHfSFEMHfj-18" value="3.通过jdbc获取table schema" style="edgeLabel;html=1;align=center;verticalAlign=middle;resizable=0;points=[];" parent="xpD0ZEU0XskHfSFEMHfj-17" vertex="1" connectable="0">
          <mxGeometry x="-0.3776" y="-2" relative="1" as="geometry">
            <mxPoint x="20" y="17" as="offset" />
          </mxGeometry>
        </mxCell>
        <mxCell id="xpD0ZEU0XskHfSFEMHfj-19" value="" style="endArrow=classic;html=1;rounded=0;exitX=1;exitY=0.5;exitDx=0;exitDy=0;" parent="1" source="xpD0ZEU0XskHfSFEMHfj-3" target="xpD0ZEU0XskHfSFEMHfj-6" edge="1">
          <mxGeometry width="50" height="50" relative="1" as="geometry">
            <mxPoint x="360" y="770" as="sourcePoint" />
            <mxPoint x="410" y="720" as="targetPoint" />
          </mxGeometry>
        </mxCell>
        <mxCell id="xpD0ZEU0XskHfSFEMHfj-20" value="4.创建临时jdbc表，提交查询" style="edgeLabel;html=1;align=center;verticalAlign=middle;resizable=0;points=[];" parent="xpD0ZEU0XskHfSFEMHfj-19" vertex="1" connectable="0">
          <mxGeometry x="-0.5532" y="1" relative="1" as="geometry">
            <mxPoint x="65" as="offset" />
          </mxGeometry>
        </mxCell>
        <mxCell id="xpD0ZEU0XskHfSFEMHfj-21" value="" style="endArrow=classic;html=1;rounded=0;exitX=0.25;exitY=1;exitDx=0;exitDy=0;entryX=1;entryY=0.5;entryDx=0;entryDy=0;" parent="1" source="xpD0ZEU0XskHfSFEMHfj-7" target="xpD0ZEU0XskHfSFEMHfj-8" edge="1">
          <mxGeometry width="50" height="50" relative="1" as="geometry">
            <mxPoint x="740" y="860" as="sourcePoint" />
            <mxPoint x="790" y="810" as="targetPoint" />
          </mxGeometry>
        </mxCell>
        <mxCell id="xpD0ZEU0XskHfSFEMHfj-22" value="4.获取jdbc查询结果" style="edgeLabel;html=1;align=center;verticalAlign=middle;resizable=0;points=[];" parent="xpD0ZEU0XskHfSFEMHfj-21" vertex="1" connectable="0">
          <mxGeometry x="0.2357" relative="1" as="geometry">
            <mxPoint x="-6" y="-12" as="offset" />
          </mxGeometry>
        </mxCell>
        <mxCell id="xpD0ZEU0XskHfSFEMHfj-23" value="" style="endArrow=classic;html=1;rounded=0;exitX=0.5;exitY=1;exitDx=0;exitDy=0;entryX=1;entryY=0.25;entryDx=0;entryDy=0;" parent="1" source="xpD0ZEU0XskHfSFEMHfj-7" target="xpD0ZEU0XskHfSFEMHfj-11" edge="1">
          <mxGeometry width="50" height="50" relative="1" as="geometry">
            <mxPoint x="790" y="870" as="sourcePoint" />
            <mxPoint x="840" y="820" as="targetPoint" />
          </mxGeometry>
        </mxCell>
        <mxCell id="xpD0ZEU0XskHfSFEMHfj-24" value="4.获取jdbc查询结果" style="edgeLabel;html=1;align=center;verticalAlign=middle;resizable=0;points=[];" parent="xpD0ZEU0XskHfSFEMHfj-23" vertex="1" connectable="0">
          <mxGeometry x="-0.1712" y="-2" relative="1" as="geometry">
            <mxPoint x="10" y="11" as="offset" />
          </mxGeometry>
        </mxCell>
        <mxCell id="xpD0ZEU0XskHfSFEMHfj-25" value="5.获得数据后，进行sql计算，返回结果" style="text;html=1;strokeColor=none;fillColor=none;align=center;verticalAlign=middle;whiteSpace=wrap;rounded=0;" parent="1" vertex="1">
          <mxGeometry x="729.5" y="677.5" width="110" height="30" as="geometry" />
        </mxCell>
        <mxCell id="xpD0ZEU0XskHfSFEMHfj-26" value="" style="rounded=0;whiteSpace=wrap;html=1;dashed=1;fillColor=none;strokeWidth=2;strokeColor=#3333FF;" parent="1" vertex="1">
          <mxGeometry x="-41" y="1292" width="832" height="356" as="geometry" />
        </mxCell>
        <mxCell id="xpD0ZEU0XskHfSFEMHfj-27" value="&lt;p style=&quot;line-height: 150% ; font-size: 15px&quot;&gt;supersql主机房&lt;/p&gt;" style="text;html=1;strokeColor=none;fillColor=none;align=center;verticalAlign=middle;whiteSpace=wrap;rounded=0;dashed=1;fontSize=15;" parent="1" vertex="1">
          <mxGeometry x="-43" y="1281" width="115" height="40" as="geometry" />
        </mxCell>
        <mxCell id="xpD0ZEU0XskHfSFEMHfj-28" value="supersql" style="rounded=0;whiteSpace=wrap;html=1;strokeColor=#2D7600;fillColor=#60a917;fontColor=#ffffff;" parent="1" vertex="1">
          <mxGeometry x="158" y="1393" width="95" height="87" as="geometry" />
        </mxCell>
        <mxCell id="xpD0ZEU0XskHfSFEMHfj-29" value="数据源" style="rounded=0;whiteSpace=wrap;html=1;strokeColor=#2D7600;fillColor=#60a917;fontColor=#ffffff;" parent="1" vertex="1">
          <mxGeometry x="478" y="1307" width="85" height="45" as="geometry" />
        </mxCell>
        <mxCell id="xpD0ZEU0XskHfSFEMHfj-30" style="edgeStyle=orthogonalEdgeStyle;rounded=0;orthogonalLoop=1;jettySize=auto;html=1;" parent="1" source="xpD0ZEU0XskHfSFEMHfj-31" target="xpD0ZEU0XskHfSFEMHfj-33" edge="1">
          <mxGeometry relative="1" as="geometry" />
        </mxCell>
        <mxCell id="xpD0ZEU0XskHfSFEMHfj-31" value="livy" style="rounded=0;whiteSpace=wrap;html=1;strokeColor=#001DBC;fillColor=#0050ef;fontColor=#ffffff;" parent="1" vertex="1">
          <mxGeometry x="476" y="1403" width="85" height="45" as="geometry" />
        </mxCell>
        <mxCell id="xpD0ZEU0XskHfSFEMHfj-32" style="edgeStyle=orthogonalEdgeStyle;rounded=0;orthogonalLoop=1;jettySize=auto;html=1;entryX=0.5;entryY=0;entryDx=0;entryDy=0;" parent="1" source="xpD0ZEU0XskHfSFEMHfj-33" target="xpD0ZEU0XskHfSFEMHfj-50" edge="1">
          <mxGeometry relative="1" as="geometry" />
        </mxCell>
        <mxCell id="xpD0ZEU0XskHfSFEMHfj-33" value="spark" style="rounded=0;whiteSpace=wrap;html=1;strokeColor=#001DBC;fillColor=#0050ef;fontColor=#ffffff;" parent="1" vertex="1">
          <mxGeometry x="662.5" y="1403" width="85" height="45" as="geometry" />
        </mxCell>
        <mxCell id="xpD0ZEU0XskHfSFEMHfj-34" style="edgeStyle=orthogonalEdgeStyle;rounded=0;orthogonalLoop=1;jettySize=auto;html=1;entryX=0;entryY=0.5;entryDx=0;entryDy=0;" parent="1" source="xpD0ZEU0XskHfSFEMHfj-35" target="xpD0ZEU0XskHfSFEMHfj-50" edge="1">
          <mxGeometry relative="1" as="geometry" />
        </mxCell>
        <mxCell id="xpD0ZEU0XskHfSFEMHfj-35" value="thive thrift server" style="rounded=0;whiteSpace=wrap;html=1;strokeColor=#001DBC;fillColor=#0050ef;fontColor=#ffffff;" parent="1" vertex="1">
          <mxGeometry x="476" y="1480" width="89" height="45" as="geometry" />
        </mxCell>
        <mxCell id="xpD0ZEU0XskHfSFEMHfj-36" value="" style="rounded=0;whiteSpace=wrap;html=1;dashed=1;fillColor=none;strokeWidth=2;strokeColor=#3333FF;" parent="1" vertex="1">
          <mxGeometry x="33" y="1718" width="650" height="201" as="geometry" />
        </mxCell>
        <mxCell id="xpD0ZEU0XskHfSFEMHfj-37" value="&lt;p style=&quot;line-height: 150% ; font-size: 15px&quot;&gt;远程机房&lt;/p&gt;" style="text;html=1;strokeColor=none;fillColor=none;align=center;verticalAlign=middle;whiteSpace=wrap;rounded=0;dashed=1;fontSize=15;" parent="1" vertex="1">
          <mxGeometry x="7" y="1708" width="115" height="40" as="geometry" />
        </mxCell>
        <mxCell id="xpD0ZEU0XskHfSFEMHfj-38" style="edgeStyle=orthogonalEdgeStyle;rounded=0;orthogonalLoop=1;jettySize=auto;html=1;entryX=0.5;entryY=0;entryDx=0;entryDy=0;" parent="1" source="xpD0ZEU0XskHfSFEMHfj-40" target="xpD0ZEU0XskHfSFEMHfj-56" edge="1">
          <mxGeometry relative="1" as="geometry" />
        </mxCell>
        <mxCell id="xpD0ZEU0XskHfSFEMHfj-39" value="4.提取结果写入到hdfs" style="edgeLabel;html=1;align=center;verticalAlign=middle;resizable=0;points=[];" parent="xpD0ZEU0XskHfSFEMHfj-38" vertex="1" connectable="0">
          <mxGeometry x="-0.1761" y="2" relative="1" as="geometry">
            <mxPoint as="offset" />
          </mxGeometry>
        </mxCell>
        <mxCell id="xpD0ZEU0XskHfSFEMHfj-40" value="thive thrift server" style="rounded=0;whiteSpace=wrap;html=1;strokeColor=#001DBC;fillColor=#0050ef;fontColor=#ffffff;" parent="1" vertex="1">
          <mxGeometry x="159" y="1736" width="100" height="45" as="geometry" />
        </mxCell>
        <mxCell id="xpD0ZEU0XskHfSFEMHfj-41" value="2.获取数据源" style="endArrow=classic;html=1;rounded=0;exitX=1;exitY=0.25;exitDx=0;exitDy=0;entryX=0;entryY=0.25;entryDx=0;entryDy=0;" parent="1" source="xpD0ZEU0XskHfSFEMHfj-28" target="xpD0ZEU0XskHfSFEMHfj-29" edge="1">
          <mxGeometry width="50" height="50" relative="1" as="geometry">
            <mxPoint x="290.5" y="1425" as="sourcePoint" />
            <mxPoint x="340.5" y="1375" as="targetPoint" />
          </mxGeometry>
        </mxCell>
        <mxCell id="xpD0ZEU0XskHfSFEMHfj-42" value="1.提交sql" style="edgeStyle=orthogonalEdgeStyle;rounded=0;orthogonalLoop=1;jettySize=auto;html=1;" parent="1" source="xpD0ZEU0XskHfSFEMHfj-43" target="xpD0ZEU0XskHfSFEMHfj-28" edge="1">
          <mxGeometry relative="1" as="geometry" />
        </mxCell>
        <mxCell id="xpD0ZEU0XskHfSFEMHfj-43" value="client" style="ellipse;whiteSpace=wrap;html=1;fontSize=15;strokeColor=#BD7000;strokeWidth=2;fillColor=#f0a30a;fontColor=#000000;" parent="1" vertex="1">
          <mxGeometry x="-34" y="1411.5" width="80" height="50" as="geometry" />
        </mxCell>
        <mxCell id="xpD0ZEU0XskHfSFEMHfj-44" value="" style="endArrow=classic;html=1;rounded=0;entryX=0.118;entryY=0.044;entryDx=0;entryDy=0;entryPerimeter=0;" parent="1" target="xpD0ZEU0XskHfSFEMHfj-40" edge="1">
          <mxGeometry width="50" height="50" relative="1" as="geometry">
            <mxPoint x="173" y="1479" as="sourcePoint" />
            <mxPoint x="239" y="1568" as="targetPoint" />
          </mxGeometry>
        </mxCell>
        <mxCell id="xpD0ZEU0XskHfSFEMHfj-45" value="3.查询元数据" style="edgeLabel;html=1;align=center;verticalAlign=middle;resizable=0;points=[];" parent="xpD0ZEU0XskHfSFEMHfj-44" vertex="1" connectable="0">
          <mxGeometry x="-0.1438" relative="1" as="geometry">
            <mxPoint x="3" y="76" as="offset" />
          </mxGeometry>
        </mxCell>
        <mxCell id="xpD0ZEU0XskHfSFEMHfj-46" value="" style="endArrow=classic;html=1;rounded=0;exitX=1;exitY=0.75;exitDx=0;exitDy=0;entryX=0;entryY=0;entryDx=0;entryDy=0;" parent="1" source="xpD0ZEU0XskHfSFEMHfj-28" target="xpD0ZEU0XskHfSFEMHfj-35" edge="1">
          <mxGeometry width="50" height="50" relative="1" as="geometry">
            <mxPoint x="278" y="1555" as="sourcePoint" />
            <mxPoint x="328" y="1505" as="targetPoint" />
          </mxGeometry>
        </mxCell>
        <mxCell id="xpD0ZEU0XskHfSFEMHfj-47" value="3.查询元数据" style="edgeLabel;html=1;align=center;verticalAlign=middle;resizable=0;points=[];" parent="xpD0ZEU0XskHfSFEMHfj-46" vertex="1" connectable="0">
          <mxGeometry x="-0.3776" y="-2" relative="1" as="geometry">
            <mxPoint x="2" y="-6" as="offset" />
          </mxGeometry>
        </mxCell>
        <mxCell id="xpD0ZEU0XskHfSFEMHfj-48" value="" style="endArrow=classic;html=1;rounded=0;exitX=1;exitY=0.5;exitDx=0;exitDy=0;" parent="1" source="xpD0ZEU0XskHfSFEMHfj-28" target="xpD0ZEU0XskHfSFEMHfj-31" edge="1">
          <mxGeometry width="50" height="50" relative="1" as="geometry">
            <mxPoint x="268" y="1495" as="sourcePoint" />
            <mxPoint x="318" y="1445" as="targetPoint" />
          </mxGeometry>
        </mxCell>
        <mxCell id="xpD0ZEU0XskHfSFEMHfj-49" value="6.创建临时表，提交查询" style="edgeLabel;html=1;align=center;verticalAlign=middle;resizable=0;points=[];" parent="xpD0ZEU0XskHfSFEMHfj-48" vertex="1" connectable="0">
          <mxGeometry x="-0.5532" y="1" relative="1" as="geometry">
            <mxPoint x="65" as="offset" />
          </mxGeometry>
        </mxCell>
        <mxCell id="xpD0ZEU0XskHfSFEMHfj-50" value="hdfs" style="rounded=0;whiteSpace=wrap;html=1;strokeColor=#001DBC;fillColor=#0050ef;fontColor=#ffffff;" parent="1" vertex="1">
          <mxGeometry x="662.5" y="1480" width="85" height="45" as="geometry" />
        </mxCell>
        <mxCell id="xpD0ZEU0XskHfSFEMHfj-51" value="数据传输" style="rounded=0;whiteSpace=wrap;html=1;strokeColor=#2D7600;fillColor=#60a917;fontColor=#ffffff;" parent="1" vertex="1">
          <mxGeometry x="478" y="1734" width="85" height="45" as="geometry" />
        </mxCell>
        <mxCell id="xpD0ZEU0XskHfSFEMHfj-52" value="" style="endArrow=classic;html=1;rounded=0;exitX=1;exitY=1;exitDx=0;exitDy=0;entryX=0;entryY=1;entryDx=0;entryDy=0;" parent="1" source="xpD0ZEU0XskHfSFEMHfj-28" target="xpD0ZEU0XskHfSFEMHfj-35" edge="1">
          <mxGeometry width="50" height="50" relative="1" as="geometry">
            <mxPoint x="242" y="1492" as="sourcePoint" />
            <mxPoint x="511.5" y="1579.25" as="targetPoint" />
          </mxGeometry>
        </mxCell>
        <mxCell id="xpD0ZEU0XskHfSFEMHfj-53" value="4.提交提取数据的查询sql" style="edgeLabel;html=1;align=center;verticalAlign=middle;resizable=0;points=[];" parent="xpD0ZEU0XskHfSFEMHfj-52" vertex="1" connectable="0">
          <mxGeometry x="-0.3776" y="-2" relative="1" as="geometry">
            <mxPoint x="62" y="7" as="offset" />
          </mxGeometry>
        </mxCell>
        <mxCell id="xpD0ZEU0XskHfSFEMHfj-54" value="" style="endArrow=classic;html=1;rounded=0;entryX=0;entryY=0.5;entryDx=0;entryDy=0;exitX=1;exitY=1;exitDx=0;exitDy=0;" parent="1" source="xpD0ZEU0XskHfSFEMHfj-28" target="xpD0ZEU0XskHfSFEMHfj-62" edge="1">
          <mxGeometry width="50" height="50" relative="1" as="geometry">
            <mxPoint x="264" y="1513" as="sourcePoint" />
            <mxPoint x="499" y="1619" as="targetPoint" />
          </mxGeometry>
        </mxCell>
        <mxCell id="xpD0ZEU0XskHfSFEMHfj-55" value="5.提交hdfs同步任务" style="edgeLabel;html=1;align=center;verticalAlign=middle;resizable=0;points=[];" parent="xpD0ZEU0XskHfSFEMHfj-54" vertex="1" connectable="0">
          <mxGeometry x="-0.2849" y="1" relative="1" as="geometry">
            <mxPoint x="12" y="16" as="offset" />
          </mxGeometry>
        </mxCell>
        <mxCell id="xpD0ZEU0XskHfSFEMHfj-56" value="hdfs" style="rounded=0;whiteSpace=wrap;html=1;strokeColor=#001DBC;fillColor=#0050ef;fontColor=#ffffff;" parent="1" vertex="1">
          <mxGeometry x="159" y="1862" width="100" height="45" as="geometry" />
        </mxCell>
        <mxCell id="xpD0ZEU0XskHfSFEMHfj-57" value="" style="endArrow=classic;html=1;rounded=0;exitX=1;exitY=0.5;exitDx=0;exitDy=0;entryX=0.5;entryY=1;entryDx=0;entryDy=0;" parent="1" source="xpD0ZEU0XskHfSFEMHfj-62" target="xpD0ZEU0XskHfSFEMHfj-50" edge="1">
          <mxGeometry width="50" height="50" relative="1" as="geometry">
            <mxPoint x="639" y="1667" as="sourcePoint" />
            <mxPoint x="689" y="1617" as="targetPoint" />
          </mxGeometry>
        </mxCell>
        <mxCell id="xpD0ZEU0XskHfSFEMHfj-58" value="5.同步远程数据到机房l" style="edgeLabel;html=1;align=center;verticalAlign=middle;resizable=0;points=[];" parent="xpD0ZEU0XskHfSFEMHfj-57" vertex="1" connectable="0">
          <mxGeometry x="-0.2281" relative="1" as="geometry">
            <mxPoint x="26" y="-6" as="offset" />
          </mxGeometry>
        </mxCell>
        <mxCell id="xpD0ZEU0XskHfSFEMHfj-59" value="" style="endArrow=classic;html=1;rounded=0;entryX=0.5;entryY=1;entryDx=0;entryDy=0;exitX=1;exitY=0.5;exitDx=0;exitDy=0;" parent="1" source="xpD0ZEU0XskHfSFEMHfj-56" target="xpD0ZEU0XskHfSFEMHfj-51" edge="1">
          <mxGeometry width="50" height="50" relative="1" as="geometry">
            <mxPoint x="359" y="1845" as="sourcePoint" />
            <mxPoint x="409" y="1795" as="targetPoint" />
          </mxGeometry>
        </mxCell>
        <mxCell id="xpD0ZEU0XskHfSFEMHfj-60" value="" style="endArrow=classic;html=1;rounded=0;entryX=0.5;entryY=0;entryDx=0;entryDy=0;" parent="1" target="xpD0ZEU0XskHfSFEMHfj-67" edge="1">
          <mxGeometry width="50" height="50" relative="1" as="geometry">
            <mxPoint x="242.20000000000005" y="1480" as="sourcePoint" />
            <mxPoint x="336" y="1692" as="targetPoint" />
          </mxGeometry>
        </mxCell>
        <mxCell id="xpD0ZEU0XskHfSFEMHfj-61" value="&lt;div&gt;&lt;span style=&quot;font-size: 11px&quot;&gt;4.提交提取数据的&lt;/span&gt;&lt;/div&gt;&lt;div&gt;&lt;span style=&quot;font-size: 11px&quot;&gt;查询sql&lt;/span&gt;&lt;/div&gt;" style="edgeLabel;html=1;align=center;verticalAlign=middle;resizable=0;points=[];" parent="xpD0ZEU0XskHfSFEMHfj-60" vertex="1" connectable="0">
          <mxGeometry x="-0.1438" relative="1" as="geometry">
            <mxPoint x="12" y="22" as="offset" />
          </mxGeometry>
        </mxCell>
        <mxCell id="xpD0ZEU0XskHfSFEMHfj-62" value="数据传输" style="rounded=0;whiteSpace=wrap;html=1;strokeColor=#2D7600;fillColor=#60a917;fontColor=#ffffff;" parent="1" vertex="1">
          <mxGeometry x="476" y="1577" width="85" height="45" as="geometry" />
        </mxCell>
        <mxCell id="xpD0ZEU0XskHfSFEMHfj-63" value="" style="curved=1;endArrow=classic;html=1;rounded=0;entryX=0.876;entryY=0.044;entryDx=0;entryDy=0;entryPerimeter=0;" parent="1" target="xpD0ZEU0XskHfSFEMHfj-33" edge="1">
          <mxGeometry width="50" height="50" relative="1" as="geometry">
            <mxPoint x="662" y="1407" as="sourcePoint" />
            <mxPoint x="712" y="1357" as="targetPoint" />
            <Array as="points">
              <mxPoint x="629" y="1373" />
              <mxPoint x="688" y="1357" />
              <mxPoint x="768" y="1367" />
            </Array>
          </mxGeometry>
        </mxCell>
        <mxCell id="xpD0ZEU0XskHfSFEMHfj-64" value="&lt;span style=&quot;font-size: 12px&quot;&gt;7.获得数据后，进行sql计算，&lt;br&gt;返回结果&lt;/span&gt;" style="edgeLabel;html=1;align=center;verticalAlign=middle;resizable=0;points=[];" parent="xpD0ZEU0XskHfSFEMHfj-63" vertex="1" connectable="0">
          <mxGeometry x="-0.2234" y="1" relative="1" as="geometry">
            <mxPoint x="1" as="offset" />
          </mxGeometry>
        </mxCell>
        <mxCell id="xpD0ZEU0XskHfSFEMHfj-65" value="" style="endArrow=classic;startArrow=classic;html=1;rounded=0;entryX=0.5;entryY=1;entryDx=0;entryDy=0;exitX=0.5;exitY=0;exitDx=0;exitDy=0;" parent="1" source="xpD0ZEU0XskHfSFEMHfj-51" target="xpD0ZEU0XskHfSFEMHfj-62" edge="1">
          <mxGeometry width="50" height="50" relative="1" as="geometry">
            <mxPoint x="490" y="1688" as="sourcePoint" />
            <mxPoint x="540" y="1638" as="targetPoint" />
          </mxGeometry>
        </mxCell>
        <mxCell id="xpD0ZEU0XskHfSFEMHfj-66" value="" style="edgeStyle=orthogonalEdgeStyle;rounded=0;orthogonalLoop=1;jettySize=auto;html=1;" parent="1" source="xpD0ZEU0XskHfSFEMHfj-67" target="xpD0ZEU0XskHfSFEMHfj-40" edge="1">
          <mxGeometry relative="1" as="geometry" />
        </mxCell>
        <mxCell id="xpD0ZEU0XskHfSFEMHfj-67" value="计算路由" style="rounded=0;whiteSpace=wrap;html=1;strokeColor=#2D7600;fillColor=#60a917;fontColor=#ffffff;" parent="1" vertex="1">
          <mxGeometry x="352" y="1736" width="85" height="45" as="geometry" />
        </mxCell>
        <mxCell id="xpD0ZEU0XskHfSFEMHfj-68" value="" style="rounded=0;whiteSpace=wrap;html=1;dashed=1;fillColor=none;strokeWidth=2;strokeColor=#3333FF;" parent="1" vertex="1">
          <mxGeometry x="-102.5" y="2211" width="832" height="356" as="geometry" />
        </mxCell>
        <mxCell id="xpD0ZEU0XskHfSFEMHfj-69" value="&lt;p style=&quot;line-height: 150% ; font-size: 15px&quot;&gt;supersql主机房&lt;/p&gt;" style="text;html=1;strokeColor=none;fillColor=none;align=center;verticalAlign=middle;whiteSpace=wrap;rounded=0;dashed=1;fontSize=15;" parent="1" vertex="1">
          <mxGeometry x="-104.5" y="2200" width="115" height="40" as="geometry" />
        </mxCell>
        <mxCell id="xpD0ZEU0XskHfSFEMHfj-70" value="supersql" style="rounded=0;whiteSpace=wrap;html=1;strokeColor=#2D7600;fillColor=#60a917;fontColor=#ffffff;" parent="1" vertex="1">
          <mxGeometry x="96.5" y="2312" width="95" height="87" as="geometry" />
        </mxCell>
        <mxCell id="xpD0ZEU0XskHfSFEMHfj-71" value="数据源" style="rounded=0;whiteSpace=wrap;html=1;strokeColor=#2D7600;fillColor=#60a917;fontColor=#ffffff;" parent="1" vertex="1">
          <mxGeometry x="416.5" y="2226" width="85" height="45" as="geometry" />
        </mxCell>
        <mxCell id="xpD0ZEU0XskHfSFEMHfj-72" style="edgeStyle=orthogonalEdgeStyle;rounded=0;orthogonalLoop=1;jettySize=auto;html=1;" parent="1" source="xpD0ZEU0XskHfSFEMHfj-73" target="xpD0ZEU0XskHfSFEMHfj-75" edge="1">
          <mxGeometry relative="1" as="geometry" />
        </mxCell>
        <mxCell id="xpD0ZEU0XskHfSFEMHfj-73" value="livy" style="rounded=0;whiteSpace=wrap;html=1;strokeColor=#001DBC;fillColor=#0050ef;fontColor=#ffffff;" parent="1" vertex="1">
          <mxGeometry x="414.5" y="2322" width="85" height="45" as="geometry" />
        </mxCell>
        <mxCell id="xpD0ZEU0XskHfSFEMHfj-74" style="edgeStyle=orthogonalEdgeStyle;rounded=0;orthogonalLoop=1;jettySize=auto;html=1;entryX=0.5;entryY=0;entryDx=0;entryDy=0;" parent="1" source="xpD0ZEU0XskHfSFEMHfj-75" target="xpD0ZEU0XskHfSFEMHfj-92" edge="1">
          <mxGeometry relative="1" as="geometry" />
        </mxCell>
        <mxCell id="xpD0ZEU0XskHfSFEMHfj-75" value="spark" style="rounded=0;whiteSpace=wrap;html=1;strokeColor=#001DBC;fillColor=#0050ef;fontColor=#ffffff;" parent="1" vertex="1">
          <mxGeometry x="601" y="2322" width="85" height="45" as="geometry" />
        </mxCell>
        <mxCell id="xpD0ZEU0XskHfSFEMHfj-76" style="edgeStyle=orthogonalEdgeStyle;rounded=0;orthogonalLoop=1;jettySize=auto;html=1;entryX=0;entryY=0.5;entryDx=0;entryDy=0;" parent="1" source="xpD0ZEU0XskHfSFEMHfj-77" target="xpD0ZEU0XskHfSFEMHfj-92" edge="1">
          <mxGeometry relative="1" as="geometry" />
        </mxCell>
        <mxCell id="xpD0ZEU0XskHfSFEMHfj-77" value="thive thrift server" style="rounded=0;whiteSpace=wrap;html=1;strokeColor=#001DBC;fillColor=#0050ef;fontColor=#ffffff;" parent="1" vertex="1">
          <mxGeometry x="414.5" y="2399" width="89" height="45" as="geometry" />
        </mxCell>
        <mxCell id="xpD0ZEU0XskHfSFEMHfj-78" value="" style="rounded=0;whiteSpace=wrap;html=1;dashed=1;fillColor=none;strokeWidth=2;strokeColor=#3333FF;" parent="1" vertex="1">
          <mxGeometry x="-28.5" y="2637" width="608.5" height="263" as="geometry" />
        </mxCell>
        <mxCell id="xpD0ZEU0XskHfSFEMHfj-79" value="&lt;p style=&quot;line-height: 150% ; font-size: 15px&quot;&gt;远程机房&lt;/p&gt;" style="text;html=1;strokeColor=none;fillColor=none;align=center;verticalAlign=middle;whiteSpace=wrap;rounded=0;dashed=1;fontSize=15;" parent="1" vertex="1">
          <mxGeometry x="-54.5" y="2627" width="115" height="40" as="geometry" />
        </mxCell>
        <mxCell id="xpD0ZEU0XskHfSFEMHfj-82" value="thive" style="rounded=0;whiteSpace=wrap;html=1;strokeColor=#001DBC;fillColor=#0050ef;fontColor=#ffffff;" parent="1" vertex="1">
          <mxGeometry x="66" y="2751" width="82" height="45" as="geometry" />
        </mxCell>
        <mxCell id="xpD0ZEU0XskHfSFEMHfj-83" value="2.获取数据源" style="endArrow=classic;html=1;rounded=0;exitX=1;exitY=0.25;exitDx=0;exitDy=0;entryX=0;entryY=0.25;entryDx=0;entryDy=0;" parent="1" source="xpD0ZEU0XskHfSFEMHfj-70" target="xpD0ZEU0XskHfSFEMHfj-71" edge="1">
          <mxGeometry width="50" height="50" relative="1" as="geometry">
            <mxPoint x="229" y="2344" as="sourcePoint" />
            <mxPoint x="279" y="2294" as="targetPoint" />
          </mxGeometry>
        </mxCell>
        <mxCell id="xpD0ZEU0XskHfSFEMHfj-84" value="1.提交sql" style="edgeStyle=orthogonalEdgeStyle;rounded=0;orthogonalLoop=1;jettySize=auto;html=1;" parent="1" source="xpD0ZEU0XskHfSFEMHfj-85" target="xpD0ZEU0XskHfSFEMHfj-70" edge="1">
          <mxGeometry relative="1" as="geometry" />
        </mxCell>
        <mxCell id="xpD0ZEU0XskHfSFEMHfj-85" value="client" style="ellipse;whiteSpace=wrap;html=1;fontSize=15;strokeColor=#BD7000;strokeWidth=2;fillColor=#f0a30a;fontColor=#000000;" parent="1" vertex="1">
          <mxGeometry x="-95.5" y="2330.5" width="80" height="50" as="geometry" />
        </mxCell>
        <mxCell id="xpD0ZEU0XskHfSFEMHfj-86" value="" style="endArrow=classic;html=1;rounded=0;exitX=0.597;exitY=0.982;exitDx=0;exitDy=0;exitPerimeter=0;entryX=0.168;entryY=0.004;entryDx=0;entryDy=0;entryPerimeter=0;" parent="1" target="xpD0ZEU0XskHfSFEMHfj-110" edge="1">
          <mxGeometry width="50" height="50" relative="1" as="geometry">
            <mxPoint x="122.21500000000015" y="2397.434" as="sourcePoint" />
            <mxPoint x="122" y="2500" as="targetPoint" />
          </mxGeometry>
        </mxCell>
        <mxCell id="xpD0ZEU0XskHfSFEMHfj-87" value="3.查询元数据" style="edgeLabel;html=1;align=center;verticalAlign=middle;resizable=0;points=[];" parent="xpD0ZEU0XskHfSFEMHfj-86" vertex="1" connectable="0">
          <mxGeometry x="-0.1438" relative="1" as="geometry">
            <mxPoint x="-17" y="-7" as="offset" />
          </mxGeometry>
        </mxCell>
        <mxCell id="xpD0ZEU0XskHfSFEMHfj-88" value="" style="endArrow=classic;html=1;rounded=0;exitX=1;exitY=0.75;exitDx=0;exitDy=0;entryX=0;entryY=0;entryDx=0;entryDy=0;" parent="1" source="xpD0ZEU0XskHfSFEMHfj-70" target="xpD0ZEU0XskHfSFEMHfj-77" edge="1">
          <mxGeometry width="50" height="50" relative="1" as="geometry">
            <mxPoint x="216.5" y="2474" as="sourcePoint" />
            <mxPoint x="266.5" y="2424" as="targetPoint" />
          </mxGeometry>
        </mxCell>
        <mxCell id="xpD0ZEU0XskHfSFEMHfj-89" value="3.查询元数据" style="edgeLabel;html=1;align=center;verticalAlign=middle;resizable=0;points=[];" parent="xpD0ZEU0XskHfSFEMHfj-88" vertex="1" connectable="0">
          <mxGeometry x="-0.3776" y="-2" relative="1" as="geometry">
            <mxPoint x="2" y="-6" as="offset" />
          </mxGeometry>
        </mxCell>
        <mxCell id="xpD0ZEU0XskHfSFEMHfj-90" value="" style="endArrow=classic;html=1;rounded=0;exitX=1;exitY=0.5;exitDx=0;exitDy=0;" parent="1" source="xpD0ZEU0XskHfSFEMHfj-70" target="xpD0ZEU0XskHfSFEMHfj-73" edge="1">
          <mxGeometry width="50" height="50" relative="1" as="geometry">
            <mxPoint x="206.5" y="2414" as="sourcePoint" />
            <mxPoint x="256.5" y="2364" as="targetPoint" />
          </mxGeometry>
        </mxCell>
        <mxCell id="xpD0ZEU0XskHfSFEMHfj-91" value="6.创建临时表，提交查询" style="edgeLabel;html=1;align=center;verticalAlign=middle;resizable=0;points=[];" parent="xpD0ZEU0XskHfSFEMHfj-90" vertex="1" connectable="0">
          <mxGeometry x="-0.5532" y="1" relative="1" as="geometry">
            <mxPoint x="65" as="offset" />
          </mxGeometry>
        </mxCell>
        <mxCell id="xpD0ZEU0XskHfSFEMHfj-92" value="hdfs" style="rounded=0;whiteSpace=wrap;html=1;strokeColor=#001DBC;fillColor=#0050ef;fontColor=#ffffff;" parent="1" vertex="1">
          <mxGeometry x="601" y="2399" width="85" height="45" as="geometry" />
        </mxCell>
        <mxCell id="xpD0ZEU0XskHfSFEMHfj-93" value="数据传输" style="rounded=0;whiteSpace=wrap;html=1;strokeColor=#2D7600;fillColor=#60a917;fontColor=#ffffff;" parent="1" vertex="1">
          <mxGeometry x="66" y="2660" width="310" height="45" as="geometry" />
        </mxCell>
        <mxCell id="xpD0ZEU0XskHfSFEMHfj-94" value="" style="endArrow=classic;html=1;rounded=0;exitX=1;exitY=1;exitDx=0;exitDy=0;entryX=0;entryY=1;entryDx=0;entryDy=0;" parent="1" source="xpD0ZEU0XskHfSFEMHfj-70" target="xpD0ZEU0XskHfSFEMHfj-77" edge="1">
          <mxGeometry width="50" height="50" relative="1" as="geometry">
            <mxPoint x="180.5" y="2411" as="sourcePoint" />
            <mxPoint x="450" y="2498.25" as="targetPoint" />
          </mxGeometry>
        </mxCell>
        <mxCell id="xpD0ZEU0XskHfSFEMHfj-95" value="4.提交提取数据的查询sql" style="edgeLabel;html=1;align=center;verticalAlign=middle;resizable=0;points=[];" parent="xpD0ZEU0XskHfSFEMHfj-94" vertex="1" connectable="0">
          <mxGeometry x="-0.3776" y="-2" relative="1" as="geometry">
            <mxPoint x="62" y="7" as="offset" />
          </mxGeometry>
        </mxCell>
        <mxCell id="xpD0ZEU0XskHfSFEMHfj-98" value="hdfs" style="rounded=0;whiteSpace=wrap;html=1;strokeColor=#001DBC;fillColor=#0050ef;fontColor=#ffffff;" parent="1" vertex="1">
          <mxGeometry x="65" y="2835" width="310" height="45" as="geometry" />
        </mxCell>
        <mxCell id="xpD0ZEU0XskHfSFEMHfj-99" value="" style="endArrow=classic;html=1;rounded=0;exitX=1;exitY=0.5;exitDx=0;exitDy=0;entryX=0.5;entryY=1;entryDx=0;entryDy=0;startArrow=classic;startFill=1;" parent="1" source="xpD0ZEU0XskHfSFEMHfj-110" target="xpD0ZEU0XskHfSFEMHfj-92" edge="1">
          <mxGeometry width="50" height="50" relative="1" as="geometry">
            <mxPoint x="485" y="2532.5" as="sourcePoint" />
            <mxPoint x="627.5" y="2536" as="targetPoint" />
          </mxGeometry>
        </mxCell>
        <mxCell id="xpD0ZEU0XskHfSFEMHfj-100" value="5.同步远程数据到机房l" style="edgeLabel;html=1;align=center;verticalAlign=middle;resizable=0;points=[];" parent="xpD0ZEU0XskHfSFEMHfj-99" vertex="1" connectable="0">
          <mxGeometry x="-0.2281" relative="1" as="geometry">
            <mxPoint x="26" y="-6" as="offset" />
          </mxGeometry>
        </mxCell>
        <mxCell id="xpD0ZEU0XskHfSFEMHfj-102" value="" style="endArrow=classic;html=1;rounded=0;exitX=0.597;exitY=0.993;exitDx=0;exitDy=0;exitPerimeter=0;entryX=0.336;entryY=0.031;entryDx=0;entryDy=0;entryPerimeter=0;" parent="1" target="xpD0ZEU0XskHfSFEMHfj-110" edge="1">
          <mxGeometry width="50" height="50" relative="1" as="geometry">
            <mxPoint x="173.21500000000015" y="2398.391" as="sourcePoint" />
            <mxPoint x="174" y="2520" as="targetPoint" />
          </mxGeometry>
        </mxCell>
        <mxCell id="xpD0ZEU0XskHfSFEMHfj-103" value="&lt;div&gt;&lt;span style=&quot;font-size: 11px&quot;&gt;4.提交提取数据的&lt;/span&gt;&lt;/div&gt;&lt;div&gt;&lt;span style=&quot;font-size: 11px&quot;&gt;查询sql&lt;/span&gt;&lt;/div&gt;" style="edgeLabel;html=1;align=center;verticalAlign=middle;resizable=0;points=[];" parent="xpD0ZEU0XskHfSFEMHfj-102" vertex="1" connectable="0">
          <mxGeometry x="-0.1438" relative="1" as="geometry">
            <mxPoint x="1" y="24" as="offset" />
          </mxGeometry>
        </mxCell>
        <mxCell id="xpD0ZEU0XskHfSFEMHfj-105" value="" style="curved=1;endArrow=classic;html=1;rounded=0;entryX=0.876;entryY=0.044;entryDx=0;entryDy=0;entryPerimeter=0;" parent="1" target="xpD0ZEU0XskHfSFEMHfj-75" edge="1">
          <mxGeometry width="50" height="50" relative="1" as="geometry">
            <mxPoint x="600.5" y="2326" as="sourcePoint" />
            <mxPoint x="650.5" y="2276" as="targetPoint" />
            <Array as="points">
              <mxPoint x="567.5" y="2292" />
              <mxPoint x="626.5" y="2276" />
              <mxPoint x="706.5" y="2286" />
            </Array>
          </mxGeometry>
        </mxCell>
        <mxCell id="xpD0ZEU0XskHfSFEMHfj-106" value="&lt;span style=&quot;font-size: 12px&quot;&gt;7.获得数据后，进行sql计算，&lt;br&gt;返回结果&lt;/span&gt;" style="edgeLabel;html=1;align=center;verticalAlign=middle;resizable=0;points=[];" parent="xpD0ZEU0XskHfSFEMHfj-105" vertex="1" connectable="0">
          <mxGeometry x="-0.2234" y="1" relative="1" as="geometry">
            <mxPoint x="1" as="offset" />
          </mxGeometry>
        </mxCell>
        <mxCell id="xpD0ZEU0XskHfSFEMHfj-110" value="数据传输" style="rounded=0;whiteSpace=wrap;html=1;strokeColor=#2D7600;fillColor=#60a917;fontColor=#ffffff;" parent="1" vertex="1">
          <mxGeometry x="70" y="2510" width="310" height="45" as="geometry" />
        </mxCell>
        <mxCell id="xpD0ZEU0XskHfSFEMHfj-113" value="" style="endArrow=classic;startArrow=classic;html=1;rounded=0;exitX=0.25;exitY=0;exitDx=0;exitDy=0;" parent="1" source="xpD0ZEU0XskHfSFEMHfj-93" edge="1">
          <mxGeometry width="50" height="50" relative="1" as="geometry">
            <mxPoint x="310" y="2680" as="sourcePoint" />
            <mxPoint x="144" y="2550" as="targetPoint" />
          </mxGeometry>
        </mxCell>
        <mxCell id="xpD0ZEU0XskHfSFEMHfj-125" value="hive" style="rounded=0;whiteSpace=wrap;html=1;strokeColor=#001DBC;fillColor=#0050ef;fontColor=#ffffff;" parent="1" vertex="1">
          <mxGeometry x="180" y="2751" width="82" height="45" as="geometry" />
        </mxCell>
        <mxCell id="xpD0ZEU0XskHfSFEMHfj-126" value="spark" style="rounded=0;whiteSpace=wrap;html=1;strokeColor=#001DBC;fillColor=#0050ef;fontColor=#ffffff;" parent="1" vertex="1">
          <mxGeometry x="292" y="2751" width="82" height="45" as="geometry" />
        </mxCell>
        <mxCell id="xpD0ZEU0XskHfSFEMHfj-127" value="mysql" style="rounded=0;whiteSpace=wrap;html=1;strokeColor=#001DBC;fillColor=#0050ef;fontColor=#ffffff;" parent="1" vertex="1">
          <mxGeometry x="416" y="2720" width="82" height="45" as="geometry" />
        </mxCell>
        <mxCell id="xpD0ZEU0XskHfSFEMHfj-128" value="oracle" style="rounded=0;whiteSpace=wrap;html=1;strokeColor=#001DBC;fillColor=#0050ef;fontColor=#ffffff;" parent="1" vertex="1">
          <mxGeometry x="416.5" y="2780" width="82" height="45" as="geometry" />
        </mxCell>
        <mxCell id="xpD0ZEU0XskHfSFEMHfj-130" value="" style="endArrow=classic;startArrow=classic;html=1;rounded=0;exitX=1;exitY=0.5;exitDx=0;exitDy=0;entryX=0;entryY=0.5;entryDx=0;entryDy=0;" parent="1" source="xpD0ZEU0XskHfSFEMHfj-126" target="xpD0ZEU0XskHfSFEMHfj-127" edge="1">
          <mxGeometry width="50" height="50" relative="1" as="geometry">
            <mxPoint x="372" y="2740" as="sourcePoint" />
            <mxPoint x="422" y="2690" as="targetPoint" />
          </mxGeometry>
        </mxCell>
        <mxCell id="xpD0ZEU0XskHfSFEMHfj-131" value="" style="endArrow=classic;startArrow=classic;html=1;rounded=0;exitX=1;exitY=0.5;exitDx=0;exitDy=0;entryX=0;entryY=0.5;entryDx=0;entryDy=0;" parent="1" source="xpD0ZEU0XskHfSFEMHfj-126" target="xpD0ZEU0XskHfSFEMHfj-128" edge="1">
          <mxGeometry width="50" height="50" relative="1" as="geometry">
            <mxPoint x="382" y="2783.5" as="sourcePoint" />
            <mxPoint x="424" y="2752.5" as="targetPoint" />
          </mxGeometry>
        </mxCell>
        <mxCell id="xpD0ZEU0XskHfSFEMHfj-132" value="" style="endArrow=classic;startArrow=classic;html=1;rounded=0;exitX=0.5;exitY=1;exitDx=0;exitDy=0;entryX=0.865;entryY=0.111;entryDx=0;entryDy=0;entryPerimeter=0;" parent="1" edge="1">
          <mxGeometry width="50" height="50" relative="1" as="geometry">
            <mxPoint x="333" y="2793" as="sourcePoint" />
            <mxPoint x="333.1500000000001" y="2836.995" as="targetPoint" />
          </mxGeometry>
        </mxCell>
        <mxCell id="xpD0ZEU0XskHfSFEMHfj-133" value="" style="endArrow=classic;startArrow=classic;html=1;rounded=0;exitX=0.25;exitY=0;exitDx=0;exitDy=0;" parent="1" edge="1">
          <mxGeometry width="50" height="50" relative="1" as="geometry">
            <mxPoint x="242.5" y="2661" as="sourcePoint" />
            <mxPoint x="243" y="2551" as="targetPoint" />
          </mxGeometry>
        </mxCell>
        <mxCell id="xpD0ZEU0XskHfSFEMHfj-134" value="" style="endArrow=classic;startArrow=classic;html=1;rounded=0;exitX=0.5;exitY=1;exitDx=0;exitDy=0;entryX=0.865;entryY=0.111;entryDx=0;entryDy=0;entryPerimeter=0;" parent="1" edge="1">
          <mxGeometry width="50" height="50" relative="1" as="geometry">
            <mxPoint x="220" y="2794" as="sourcePoint" />
            <mxPoint x="220.1500000000001" y="2837.995" as="targetPoint" />
          </mxGeometry>
        </mxCell>
        <mxCell id="xpD0ZEU0XskHfSFEMHfj-135" value="" style="endArrow=classic;startArrow=classic;html=1;rounded=0;exitX=0.5;exitY=1;exitDx=0;exitDy=0;entryX=0.865;entryY=0.111;entryDx=0;entryDy=0;entryPerimeter=0;" parent="1" edge="1">
          <mxGeometry width="50" height="50" relative="1" as="geometry">
            <mxPoint x="107" y="2794" as="sourcePoint" />
            <mxPoint x="107.15000000000009" y="2837.995" as="targetPoint" />
          </mxGeometry>
        </mxCell>
        <mxCell id="xpD0ZEU0XskHfSFEMHfj-138" value="" style="endArrow=classic;startArrow=classic;html=1;rounded=0;exitX=0.5;exitY=1;exitDx=0;exitDy=0;entryX=0.865;entryY=0.111;entryDx=0;entryDy=0;entryPerimeter=0;" parent="1" edge="1">
          <mxGeometry width="50" height="50" relative="1" as="geometry">
            <mxPoint x="108" y="2707" as="sourcePoint" />
            <mxPoint x="108.15000000000009" y="2750.995" as="targetPoint" />
          </mxGeometry>
        </mxCell>
        <mxCell id="xpD0ZEU0XskHfSFEMHfj-139" value="" style="endArrow=classic;startArrow=classic;html=1;rounded=0;exitX=0.5;exitY=1;exitDx=0;exitDy=0;entryX=0.865;entryY=0.111;entryDx=0;entryDy=0;entryPerimeter=0;" parent="1" edge="1">
          <mxGeometry width="50" height="50" relative="1" as="geometry">
            <mxPoint x="220" y="2707" as="sourcePoint" />
            <mxPoint x="220.1500000000001" y="2750.995" as="targetPoint" />
          </mxGeometry>
        </mxCell>
        <mxCell id="xpD0ZEU0XskHfSFEMHfj-140" value="" style="endArrow=classic;startArrow=classic;html=1;rounded=0;exitX=0.5;exitY=1;exitDx=0;exitDy=0;entryX=0.865;entryY=0.111;entryDx=0;entryDy=0;entryPerimeter=0;" parent="1" edge="1">
          <mxGeometry width="50" height="50" relative="1" as="geometry">
            <mxPoint x="333" y="2707" as="sourcePoint" />
            <mxPoint x="333.1500000000001" y="2750.995" as="targetPoint" />
          </mxGeometry>
        </mxCell>
        <mxCell id="xpD0ZEU0XskHfSFEMHfj-141" value="" style="rounded=0;whiteSpace=wrap;html=1;dashed=1;fillColor=none;strokeWidth=2;strokeColor=#3333FF;" parent="1" vertex="1">
          <mxGeometry x="-41" y="1292" width="832" height="356" as="geometry" />
        </mxCell>
        <mxCell id="xpD0ZEU0XskHfSFEMHfj-142" value="&lt;p style=&quot;line-height: 150% ; font-size: 15px&quot;&gt;supersql主机房&lt;/p&gt;" style="text;html=1;strokeColor=none;fillColor=none;align=center;verticalAlign=middle;whiteSpace=wrap;rounded=0;dashed=1;fontSize=15;" parent="1" vertex="1">
          <mxGeometry x="-43" y="1281" width="115" height="40" as="geometry" />
        </mxCell>
        <mxCell id="xpD0ZEU0XskHfSFEMHfj-143" value="cross query" style="rounded=0;whiteSpace=wrap;html=1;strokeColor=#2D7600;fillColor=#60a917;fontColor=#ffffff;" parent="1" vertex="1">
          <mxGeometry x="158" y="1393" width="95" height="87" as="geometry" />
        </mxCell>
        <mxCell id="xpD0ZEU0XskHfSFEMHfj-144" value="数据源" style="rounded=0;whiteSpace=wrap;html=1;strokeColor=#2D7600;fillColor=#60a917;fontColor=#ffffff;" parent="1" vertex="1">
          <mxGeometry x="478" y="1307" width="85" height="45" as="geometry" />
        </mxCell>
        <mxCell id="xpD0ZEU0XskHfSFEMHfj-145" style="edgeStyle=orthogonalEdgeStyle;rounded=0;orthogonalLoop=1;jettySize=auto;html=1;" parent="1" source="xpD0ZEU0XskHfSFEMHfj-146" target="xpD0ZEU0XskHfSFEMHfj-148" edge="1">
          <mxGeometry relative="1" as="geometry" />
        </mxCell>
        <mxCell id="xpD0ZEU0XskHfSFEMHfj-146" value="livy" style="rounded=0;whiteSpace=wrap;html=1;strokeColor=#001DBC;fillColor=#0050ef;fontColor=#ffffff;" parent="1" vertex="1">
          <mxGeometry x="476" y="1403" width="85" height="45" as="geometry" />
        </mxCell>
        <mxCell id="xpD0ZEU0XskHfSFEMHfj-147" style="edgeStyle=orthogonalEdgeStyle;rounded=0;orthogonalLoop=1;jettySize=auto;html=1;entryX=0.5;entryY=0;entryDx=0;entryDy=0;" parent="1" source="xpD0ZEU0XskHfSFEMHfj-148" target="xpD0ZEU0XskHfSFEMHfj-165" edge="1">
          <mxGeometry relative="1" as="geometry" />
        </mxCell>
        <mxCell id="xpD0ZEU0XskHfSFEMHfj-148" value="spark" style="rounded=0;whiteSpace=wrap;html=1;strokeColor=#001DBC;fillColor=#0050ef;fontColor=#ffffff;" parent="1" vertex="1">
          <mxGeometry x="662.5" y="1403" width="85" height="45" as="geometry" />
        </mxCell>
        <mxCell id="xpD0ZEU0XskHfSFEMHfj-149" style="edgeStyle=orthogonalEdgeStyle;rounded=0;orthogonalLoop=1;jettySize=auto;html=1;entryX=0;entryY=0.5;entryDx=0;entryDy=0;" parent="1" source="xpD0ZEU0XskHfSFEMHfj-150" target="xpD0ZEU0XskHfSFEMHfj-165" edge="1">
          <mxGeometry relative="1" as="geometry" />
        </mxCell>
        <mxCell id="xpD0ZEU0XskHfSFEMHfj-150" value="thive thrift server" style="rounded=0;whiteSpace=wrap;html=1;strokeColor=#001DBC;fillColor=#0050ef;fontColor=#ffffff;" parent="1" vertex="1">
          <mxGeometry x="476" y="1480" width="89" height="45" as="geometry" />
        </mxCell>
        <mxCell id="xpD0ZEU0XskHfSFEMHfj-151" value="" style="rounded=0;whiteSpace=wrap;html=1;dashed=1;fillColor=none;strokeWidth=2;strokeColor=#3333FF;" parent="1" vertex="1">
          <mxGeometry x="33" y="1718" width="650" height="201" as="geometry" />
        </mxCell>
        <mxCell id="xpD0ZEU0XskHfSFEMHfj-152" value="&lt;p style=&quot;line-height: 150% ; font-size: 15px&quot;&gt;远程机房&lt;/p&gt;" style="text;html=1;strokeColor=none;fillColor=none;align=center;verticalAlign=middle;whiteSpace=wrap;rounded=0;dashed=1;fontSize=15;" parent="1" vertex="1">
          <mxGeometry x="7" y="1708" width="115" height="40" as="geometry" />
        </mxCell>
        <mxCell id="xpD0ZEU0XskHfSFEMHfj-153" style="edgeStyle=orthogonalEdgeStyle;rounded=0;orthogonalLoop=1;jettySize=auto;html=1;entryX=0.5;entryY=0;entryDx=0;entryDy=0;" parent="1" source="xpD0ZEU0XskHfSFEMHfj-155" target="xpD0ZEU0XskHfSFEMHfj-171" edge="1">
          <mxGeometry relative="1" as="geometry" />
        </mxCell>
        <mxCell id="xpD0ZEU0XskHfSFEMHfj-154" value="4.提取结果写入到hdfs" style="edgeLabel;html=1;align=center;verticalAlign=middle;resizable=0;points=[];" parent="xpD0ZEU0XskHfSFEMHfj-153" vertex="1" connectable="0">
          <mxGeometry x="-0.1761" y="2" relative="1" as="geometry">
            <mxPoint as="offset" />
          </mxGeometry>
        </mxCell>
        <mxCell id="xpD0ZEU0XskHfSFEMHfj-155" value="thive thrift server" style="rounded=0;whiteSpace=wrap;html=1;strokeColor=#001DBC;fillColor=#0050ef;fontColor=#ffffff;" parent="1" vertex="1">
          <mxGeometry x="159" y="1736" width="100" height="45" as="geometry" />
        </mxCell>
        <mxCell id="xpD0ZEU0XskHfSFEMHfj-156" value="2.获取数据源" style="endArrow=classic;html=1;rounded=0;exitX=1;exitY=0.25;exitDx=0;exitDy=0;entryX=0;entryY=0.25;entryDx=0;entryDy=0;" parent="1" source="xpD0ZEU0XskHfSFEMHfj-143" target="xpD0ZEU0XskHfSFEMHfj-144" edge="1">
          <mxGeometry width="50" height="50" relative="1" as="geometry">
            <mxPoint x="290.5" y="1425" as="sourcePoint" />
            <mxPoint x="340.5" y="1375" as="targetPoint" />
          </mxGeometry>
        </mxCell>
        <mxCell id="xpD0ZEU0XskHfSFEMHfj-157" value="1.提交sql" style="edgeStyle=orthogonalEdgeStyle;rounded=0;orthogonalLoop=1;jettySize=auto;html=1;" parent="1" source="xpD0ZEU0XskHfSFEMHfj-158" target="xpD0ZEU0XskHfSFEMHfj-143" edge="1">
          <mxGeometry relative="1" as="geometry" />
        </mxCell>
        <mxCell id="xpD0ZEU0XskHfSFEMHfj-158" value="client" style="ellipse;whiteSpace=wrap;html=1;fontSize=15;strokeColor=#BD7000;strokeWidth=2;fillColor=#f0a30a;fontColor=#000000;" parent="1" vertex="1">
          <mxGeometry x="-34" y="1411.5" width="80" height="50" as="geometry" />
        </mxCell>
        <mxCell id="xpD0ZEU0XskHfSFEMHfj-159" value="" style="endArrow=classic;html=1;rounded=0;entryX=0.118;entryY=0.044;entryDx=0;entryDy=0;entryPerimeter=0;" parent="1" target="xpD0ZEU0XskHfSFEMHfj-155" edge="1">
          <mxGeometry width="50" height="50" relative="1" as="geometry">
            <mxPoint x="173" y="1479" as="sourcePoint" />
            <mxPoint x="239" y="1568" as="targetPoint" />
          </mxGeometry>
        </mxCell>
        <mxCell id="xpD0ZEU0XskHfSFEMHfj-160" value="3.查询元数据" style="edgeLabel;html=1;align=center;verticalAlign=middle;resizable=0;points=[];" parent="xpD0ZEU0XskHfSFEMHfj-159" vertex="1" connectable="0">
          <mxGeometry x="-0.1438" relative="1" as="geometry">
            <mxPoint x="3" y="76" as="offset" />
          </mxGeometry>
        </mxCell>
        <mxCell id="xpD0ZEU0XskHfSFEMHfj-161" value="" style="endArrow=classic;html=1;rounded=0;exitX=1;exitY=0.75;exitDx=0;exitDy=0;entryX=0;entryY=0;entryDx=0;entryDy=0;" parent="1" source="xpD0ZEU0XskHfSFEMHfj-143" target="xpD0ZEU0XskHfSFEMHfj-150" edge="1">
          <mxGeometry width="50" height="50" relative="1" as="geometry">
            <mxPoint x="278" y="1555" as="sourcePoint" />
            <mxPoint x="328" y="1505" as="targetPoint" />
          </mxGeometry>
        </mxCell>
        <mxCell id="xpD0ZEU0XskHfSFEMHfj-162" value="3.查询元数据" style="edgeLabel;html=1;align=center;verticalAlign=middle;resizable=0;points=[];" parent="xpD0ZEU0XskHfSFEMHfj-161" vertex="1" connectable="0">
          <mxGeometry x="-0.3776" y="-2" relative="1" as="geometry">
            <mxPoint x="2" y="-6" as="offset" />
          </mxGeometry>
        </mxCell>
        <mxCell id="xpD0ZEU0XskHfSFEMHfj-163" value="" style="endArrow=classic;html=1;rounded=0;exitX=1;exitY=0.5;exitDx=0;exitDy=0;" parent="1" source="xpD0ZEU0XskHfSFEMHfj-143" target="xpD0ZEU0XskHfSFEMHfj-146" edge="1">
          <mxGeometry width="50" height="50" relative="1" as="geometry">
            <mxPoint x="268" y="1495" as="sourcePoint" />
            <mxPoint x="318" y="1445" as="targetPoint" />
          </mxGeometry>
        </mxCell>
        <mxCell id="xpD0ZEU0XskHfSFEMHfj-164" value="6.创建临时表，提交查询" style="edgeLabel;html=1;align=center;verticalAlign=middle;resizable=0;points=[];" parent="xpD0ZEU0XskHfSFEMHfj-163" vertex="1" connectable="0">
          <mxGeometry x="-0.5532" y="1" relative="1" as="geometry">
            <mxPoint x="65" as="offset" />
          </mxGeometry>
        </mxCell>
        <mxCell id="xpD0ZEU0XskHfSFEMHfj-165" value="hdfs" style="rounded=0;whiteSpace=wrap;html=1;strokeColor=#001DBC;fillColor=#0050ef;fontColor=#ffffff;" parent="1" vertex="1">
          <mxGeometry x="662.5" y="1480" width="85" height="45" as="geometry" />
        </mxCell>
        <mxCell id="xpD0ZEU0XskHfSFEMHfj-166" value="数据路由" style="rounded=0;whiteSpace=wrap;html=1;strokeColor=#2D7600;fillColor=#60a917;fontColor=#ffffff;" parent="1" vertex="1">
          <mxGeometry x="478" y="1734" width="85" height="45" as="geometry" />
        </mxCell>
        <mxCell id="xpD0ZEU0XskHfSFEMHfj-167" value="" style="endArrow=classic;html=1;rounded=0;exitX=1;exitY=1;exitDx=0;exitDy=0;entryX=0;entryY=1;entryDx=0;entryDy=0;" parent="1" source="xpD0ZEU0XskHfSFEMHfj-143" target="xpD0ZEU0XskHfSFEMHfj-150" edge="1">
          <mxGeometry width="50" height="50" relative="1" as="geometry">
            <mxPoint x="242" y="1492" as="sourcePoint" />
            <mxPoint x="511.5" y="1579.25" as="targetPoint" />
          </mxGeometry>
        </mxCell>
        <mxCell id="xpD0ZEU0XskHfSFEMHfj-168" value="4.提交提取数据的查询sql" style="edgeLabel;html=1;align=center;verticalAlign=middle;resizable=0;points=[];" parent="xpD0ZEU0XskHfSFEMHfj-167" vertex="1" connectable="0">
          <mxGeometry x="-0.3776" y="-2" relative="1" as="geometry">
            <mxPoint x="62" y="7" as="offset" />
          </mxGeometry>
        </mxCell>
        <mxCell id="xpD0ZEU0XskHfSFEMHfj-169" value="" style="endArrow=classic;html=1;rounded=0;entryX=0;entryY=0.5;entryDx=0;entryDy=0;exitX=1;exitY=1;exitDx=0;exitDy=0;" parent="1" source="xpD0ZEU0XskHfSFEMHfj-143" target="xpD0ZEU0XskHfSFEMHfj-177" edge="1">
          <mxGeometry width="50" height="50" relative="1" as="geometry">
            <mxPoint x="264" y="1513" as="sourcePoint" />
            <mxPoint x="499" y="1619" as="targetPoint" />
          </mxGeometry>
        </mxCell>
        <mxCell id="xpD0ZEU0XskHfSFEMHfj-170" value="5.提交hdfs同步任务" style="edgeLabel;html=1;align=center;verticalAlign=middle;resizable=0;points=[];" parent="xpD0ZEU0XskHfSFEMHfj-169" vertex="1" connectable="0">
          <mxGeometry x="-0.2849" y="1" relative="1" as="geometry">
            <mxPoint x="12" y="16" as="offset" />
          </mxGeometry>
        </mxCell>
        <mxCell id="xpD0ZEU0XskHfSFEMHfj-171" value="hdfs" style="rounded=0;whiteSpace=wrap;html=1;strokeColor=#001DBC;fillColor=#0050ef;fontColor=#ffffff;" parent="1" vertex="1">
          <mxGeometry x="159" y="1862" width="100" height="45" as="geometry" />
        </mxCell>
        <mxCell id="xpD0ZEU0XskHfSFEMHfj-172" value="" style="endArrow=classic;html=1;rounded=0;exitX=1;exitY=0.5;exitDx=0;exitDy=0;entryX=0.5;entryY=1;entryDx=0;entryDy=0;" parent="1" source="xpD0ZEU0XskHfSFEMHfj-177" target="xpD0ZEU0XskHfSFEMHfj-165" edge="1">
          <mxGeometry width="50" height="50" relative="1" as="geometry">
            <mxPoint x="639" y="1667" as="sourcePoint" />
            <mxPoint x="689" y="1617" as="targetPoint" />
          </mxGeometry>
        </mxCell>
        <mxCell id="xpD0ZEU0XskHfSFEMHfj-173" value="5.同步远程数据到机房l" style="edgeLabel;html=1;align=center;verticalAlign=middle;resizable=0;points=[];" parent="xpD0ZEU0XskHfSFEMHfj-172" vertex="1" connectable="0">
          <mxGeometry x="-0.2281" relative="1" as="geometry">
            <mxPoint x="26" y="-6" as="offset" />
          </mxGeometry>
        </mxCell>
        <mxCell id="xpD0ZEU0XskHfSFEMHfj-174" value="" style="endArrow=classic;html=1;rounded=0;entryX=0.5;entryY=1;entryDx=0;entryDy=0;exitX=1;exitY=0.5;exitDx=0;exitDy=0;" parent="1" source="xpD0ZEU0XskHfSFEMHfj-171" target="xpD0ZEU0XskHfSFEMHfj-166" edge="1">
          <mxGeometry width="50" height="50" relative="1" as="geometry">
            <mxPoint x="359" y="1845" as="sourcePoint" />
            <mxPoint x="409" y="1795" as="targetPoint" />
          </mxGeometry>
        </mxCell>
        <mxCell id="xpD0ZEU0XskHfSFEMHfj-175" value="" style="endArrow=classic;html=1;rounded=0;entryX=0.5;entryY=0;entryDx=0;entryDy=0;" parent="1" target="xpD0ZEU0XskHfSFEMHfj-182" edge="1">
          <mxGeometry width="50" height="50" relative="1" as="geometry">
            <mxPoint x="242.20000000000005" y="1480" as="sourcePoint" />
            <mxPoint x="336" y="1692" as="targetPoint" />
          </mxGeometry>
        </mxCell>
        <mxCell id="xpD0ZEU0XskHfSFEMHfj-176" value="&lt;div&gt;&lt;span style=&quot;font-size: 11px&quot;&gt;4.提交提取数据的&lt;/span&gt;&lt;/div&gt;&lt;div&gt;&lt;span style=&quot;font-size: 11px&quot;&gt;查询sql&lt;/span&gt;&lt;/div&gt;" style="edgeLabel;html=1;align=center;verticalAlign=middle;resizable=0;points=[];" parent="xpD0ZEU0XskHfSFEMHfj-175" vertex="1" connectable="0">
          <mxGeometry x="-0.1438" relative="1" as="geometry">
            <mxPoint x="12" y="22" as="offset" />
          </mxGeometry>
        </mxCell>
        <mxCell id="xpD0ZEU0XskHfSFEMHfj-177" value="数据路由" style="rounded=0;whiteSpace=wrap;html=1;strokeColor=#2D7600;fillColor=#60a917;fontColor=#ffffff;" parent="1" vertex="1">
          <mxGeometry x="476" y="1577" width="85" height="45" as="geometry" />
        </mxCell>
        <mxCell id="xpD0ZEU0XskHfSFEMHfj-178" value="" style="curved=1;endArrow=classic;html=1;rounded=0;entryX=0.876;entryY=0.044;entryDx=0;entryDy=0;entryPerimeter=0;" parent="1" target="xpD0ZEU0XskHfSFEMHfj-148" edge="1">
          <mxGeometry width="50" height="50" relative="1" as="geometry">
            <mxPoint x="662" y="1407" as="sourcePoint" />
            <mxPoint x="712" y="1357" as="targetPoint" />
            <Array as="points">
              <mxPoint x="629" y="1373" />
              <mxPoint x="688" y="1357" />
              <mxPoint x="768" y="1367" />
            </Array>
          </mxGeometry>
        </mxCell>
        <mxCell id="xpD0ZEU0XskHfSFEMHfj-179" value="&lt;span style=&quot;font-size: 12px&quot;&gt;7.获得数据后，进行sql计算，&lt;br&gt;返回结果&lt;/span&gt;" style="edgeLabel;html=1;align=center;verticalAlign=middle;resizable=0;points=[];" parent="xpD0ZEU0XskHfSFEMHfj-178" vertex="1" connectable="0">
          <mxGeometry x="-0.2234" y="1" relative="1" as="geometry">
            <mxPoint x="1" as="offset" />
          </mxGeometry>
        </mxCell>
        <mxCell id="xpD0ZEU0XskHfSFEMHfj-180" value="" style="endArrow=classic;startArrow=classic;html=1;rounded=0;entryX=0.5;entryY=1;entryDx=0;entryDy=0;exitX=0.5;exitY=0;exitDx=0;exitDy=0;" parent="1" source="xpD0ZEU0XskHfSFEMHfj-166" target="xpD0ZEU0XskHfSFEMHfj-177" edge="1">
          <mxGeometry width="50" height="50" relative="1" as="geometry">
            <mxPoint x="490" y="1688" as="sourcePoint" />
            <mxPoint x="540" y="1638" as="targetPoint" />
          </mxGeometry>
        </mxCell>
        <mxCell id="xpD0ZEU0XskHfSFEMHfj-181" value="" style="edgeStyle=orthogonalEdgeStyle;rounded=0;orthogonalLoop=1;jettySize=auto;html=1;" parent="1" source="xpD0ZEU0XskHfSFEMHfj-182" target="xpD0ZEU0XskHfSFEMHfj-155" edge="1">
          <mxGeometry relative="1" as="geometry" />
        </mxCell>
        <mxCell id="xpD0ZEU0XskHfSFEMHfj-182" value="计算路由" style="rounded=0;whiteSpace=wrap;html=1;strokeColor=#2D7600;fillColor=#60a917;fontColor=#ffffff;" parent="1" vertex="1">
          <mxGeometry x="352" y="1736" width="85" height="45" as="geometry" />
        </mxCell>
        <mxCell id="VOQfH7wvOU8QGOnTNFBW-1" value="" style="rounded=0;whiteSpace=wrap;html=1;dashed=1;fillColor=none;strokeWidth=2;strokeColor=#3333FF;" vertex="1" parent="1">
          <mxGeometry x="-112" y="3145" width="312" height="135" as="geometry" />
        </mxCell>
        <mxCell id="VOQfH7wvOU8QGOnTNFBW-2" value="&lt;p style=&quot;line-height: 150% ; font-size: 15px&quot;&gt;inframanager&lt;/p&gt;" style="text;html=1;strokeColor=none;fillColor=none;align=center;verticalAlign=middle;whiteSpace=wrap;rounded=0;dashed=1;fontSize=15;" vertex="1" parent="1">
          <mxGeometry x="-119" y="3140" width="115" height="40" as="geometry" />
        </mxCell>
        <mxCell id="VOQfH7wvOU8QGOnTNFBW-22" value="&lt;p style=&quot;line-height: 150% ; font-size: 15px&quot;&gt;inframanager提供presto-operator和presto-cluster部署删除的能力&lt;/p&gt;&lt;p style=&quot;line-height: 150% ; font-size: 15px&quot;&gt;1&lt;/p&gt;" style="text;html=1;strokeColor=none;fillColor=none;align=left;verticalAlign=middle;whiteSpace=wrap;rounded=0;dashed=1;fontSize=15;" vertex="1" parent="1">
          <mxGeometry x="-95.5" y="3730" width="575" height="40" as="geometry" />
        </mxCell>
        <mxCell id="VOQfH7wvOU8QGOnTNFBW-23" value="" style="rounded=0;whiteSpace=wrap;html=1;dashed=1;fillColor=none;strokeWidth=2;strokeColor=#3333FF;" vertex="1" parent="1">
          <mxGeometry x="-112" y="3023" width="307" height="60" as="geometry" />
        </mxCell>
        <mxCell id="VOQfH7wvOU8QGOnTNFBW-25" value="&lt;p style=&quot;line-height: 150% ; font-size: 15px&quot;&gt;portal&lt;/p&gt;" style="text;html=1;strokeColor=none;fillColor=none;align=center;verticalAlign=middle;whiteSpace=wrap;rounded=0;dashed=1;fontSize=15;" vertex="1" parent="1">
          <mxGeometry x="-119" y="3013" width="79" height="40" as="geometry" />
        </mxCell>
        <mxCell id="VOQfH7wvOU8QGOnTNFBW-26" value="Presto Cluster管理模块" style="rounded=0;whiteSpace=wrap;html=1;strokeColor=#2D7600;fillColor=#60a917;fontColor=#ffffff;" vertex="1" parent="1">
          <mxGeometry x="-36" y="3029" width="204" height="45" as="geometry" />
        </mxCell>
        <mxCell id="VOQfH7wvOU8QGOnTNFBW-27" value="Presto 部署模块" style="rounded=0;whiteSpace=wrap;html=1;strokeColor=#2D7600;fillColor=#60a917;fontColor=#ffffff;" vertex="1" parent="1">
          <mxGeometry x="-50" y="3175" width="204" height="45" as="geometry" />
        </mxCell>
        <mxCell id="VOQfH7wvOU8QGOnTNFBW-32" value="K8S Client Tools" style="rounded=0;whiteSpace=wrap;html=1;strokeColor=#2D7600;fillColor=#60a917;fontColor=#ffffff;" vertex="1" parent="1">
          <mxGeometry x="-49" y="3230" width="204" height="45" as="geometry" />
        </mxCell>
        <mxCell id="VOQfH7wvOU8QGOnTNFBW-33" value="" style="rounded=0;whiteSpace=wrap;html=1;dashed=1;fillColor=none;strokeWidth=2;strokeColor=#3333FF;" vertex="1" parent="1">
          <mxGeometry x="-112" y="3325" width="312" height="175" as="geometry" />
        </mxCell>
        <mxCell id="VOQfH7wvOU8QGOnTNFBW-34" value="&lt;p style=&quot;line-height: 150% ; font-size: 15px&quot;&gt;K8S Cluster&lt;/p&gt;" style="text;html=1;strokeColor=none;fillColor=none;align=center;verticalAlign=middle;whiteSpace=wrap;rounded=0;dashed=1;fontSize=15;" vertex="1" parent="1">
          <mxGeometry x="-119" y="3320" width="115" height="40" as="geometry" />
        </mxCell>
        <mxCell id="VOQfH7wvOU8QGOnTNFBW-35" value="K8S Api Service" style="rounded=0;whiteSpace=wrap;html=1;strokeColor=#2D7600;fillColor=#60a917;fontColor=#ffffff;" vertex="1" parent="1">
          <mxGeometry x="-100" y="3360" width="218" height="45" as="geometry" />
        </mxCell>
        <mxCell id="VOQfH7wvOU8QGOnTNFBW-36" value="Docker" style="rounded=0;whiteSpace=wrap;html=1;strokeColor=#2D7600;fillColor=#60a917;fontColor=#ffffff;rotation=90;" vertex="1" parent="1">
          <mxGeometry x="100" y="3400" width="123" height="45" as="geometry" />
        </mxCell>
        <mxCell id="VOQfH7wvOU8QGOnTNFBW-38" value="Container1" style="rounded=0;whiteSpace=wrap;html=1;strokeColor=#2D7600;fillColor=#60a917;fontColor=#ffffff;" vertex="1" parent="1">
          <mxGeometry x="-102.5" y="3430" width="72.5" height="45" as="geometry" />
        </mxCell>
        <mxCell id="VOQfH7wvOU8QGOnTNFBW-39" value="Container2" style="rounded=0;whiteSpace=wrap;html=1;strokeColor=#2D7600;fillColor=#60a917;fontColor=#ffffff;" vertex="1" parent="1">
          <mxGeometry x="-24.5" y="3430" width="68.5" height="45" as="geometry" />
        </mxCell>
        <mxCell id="VOQfH7wvOU8QGOnTNFBW-40" value="..." style="rounded=0;whiteSpace=wrap;html=1;strokeColor=#2D7600;fillColor=#60a917;fontColor=#ffffff;fontStyle=1" vertex="1" parent="1">
          <mxGeometry x="53" y="3430" width="64" height="45" as="geometry" />
        </mxCell>
        <mxCell id="VOQfH7wvOU8QGOnTNFBW-41" value="" style="rounded=0;whiteSpace=wrap;html=1;dashed=1;fillColor=none;strokeWidth=2;strokeColor=#3333FF;" vertex="1" parent="1">
          <mxGeometry x="274" y="3145" width="312" height="135" as="geometry" />
        </mxCell>
        <mxCell id="VOQfH7wvOU8QGOnTNFBW-42" value="&lt;p style=&quot;line-height: 150% ; font-size: 15px&quot;&gt;EOS&lt;/p&gt;" style="text;html=1;strokeColor=none;fillColor=none;align=center;verticalAlign=middle;whiteSpace=wrap;rounded=0;dashed=1;fontSize=15;" vertex="1" parent="1">
          <mxGeometry x="267" y="3140" width="63" height="40" as="geometry" />
        </mxCell>
        <mxCell id="VOQfH7wvOU8QGOnTNFBW-43" value="SQL 任务执行" style="rounded=0;whiteSpace=wrap;html=1;strokeColor=#2D7600;fillColor=#60a917;fontColor=#ffffff;" vertex="1" parent="1">
          <mxGeometry x="332" y="3173" width="218" height="45" as="geometry" />
        </mxCell>
        <mxCell id="VOQfH7wvOU8QGOnTNFBW-45" value="提交Presto Cluster" style="rounded=0;whiteSpace=wrap;html=1;strokeColor=#2D7600;fillColor=#60a917;fontColor=#ffffff;" vertex="1" parent="1">
          <mxGeometry x="332" y="3228" width="104" height="45" as="geometry" />
        </mxCell>
        <mxCell id="VOQfH7wvOU8QGOnTNFBW-46" value="FailedOver提交Thive" style="rounded=0;whiteSpace=wrap;html=1;strokeColor=#2D7600;fillColor=#60a917;fontColor=#ffffff;" vertex="1" parent="1">
          <mxGeometry x="446" y="3228" width="104" height="45" as="geometry" />
        </mxCell>
      </root>
    </mxGraphModel>
  </diagram>
</mxfile>
